<svg xmlns="http://www.w3.org/2000/svg" viewBox="0 0 512 512" width="512" height="512">
  <rect width="512" height="512" rx="108" fill="#0a0a0a"/>
  <!-- Heart shape -->
  <path d="M256 420 C256 420 100 310 100 210 C100 160 140 120 190 120 C220 120 245 140 256 160 C267 140 292 120 322 120 C372 120 412 160 412 210 C412 310 256 420 256 420Z" fill="none" stroke="#4A9EFF" stroke-width="6" opacity="0.2"/>
  <!-- Pulse/heartbeat line -->
  <polyline points="60,270 160,270 190,270 210,200 230,340 250,230 270,290 290,260 310,270 340,270 452,270" fill="none" stroke="#4A9EFF" stroke-width="10" stroke-linecap="round" stroke-linejoin="round"/>
  <!-- Small dot accents -->
  <circle cx="60" cy="270" r="6" fill="#4A9EFF" opacity="0.5"/>
  <circle cx="452" cy="270" r="6" fill="#4A9EFF" opacity="0.5"/>
</svg>
